<svg clip-rule="evenodd" fill-rule="evenodd" height="5.09885in" image-rendering="optimizeQuality" shape-rendering="geometricPrecision" text-rendering="geometricPrecision" viewBox="0 0 45205 12554.19" width="18.3599in" xmlns="http://www.w3.org/2000/svg"><path d="m0 .01h45205v12554.18h-45205z" fill="none"/><g fill="#373535"><path d="m2690.9 4975.61c-128.03 36.11-244.57 115.72-351.27 238.83-105.87 123.92-159.22 258.53-159.22 405.43 0 93.56 30.36 196.97 91.91 309.41 61.55 113.26 152.65 195.33 272.49 246.22 40.21 9.85 59.91 29.55 59.91 59.09 0 11.5-16.41 22.16-50.88 29.55-192.05-48.42-348.8-150.19-470.27-303.66-121.47-154.3-184.66-331.58-189.59-533.47 7.39-215.85 73.04-416.11 196.97-601.58 123.93-185.49 285.61-318.44 483.41-397.23l-143.63-744.4c-323.37 268.38-586.82 549.06-789.53 841.25-202.72 292.17-308.59 608.97-317.62 951.21 4.92 152.65 36.93 301.21 95.2 444.84 59.09 144.44 146.91 274.94 264.28 393.12 238.01 238.01 544.95 361.94 920.02 373.42 128.03-8.2 265.09-31.18 412.01-68.12l-324.19-1643.9zm151.02-20.52 325.83 1614.35c322.54-131.31 484.22-413.64 484.22-846.98-17.24-142.81-59.92-273.3-130.49-389.84-69.76-117.37-163.33-209.28-279.86-276.59-117.37-67.3-250.33-100.95-399.69-100.95zm-430.05-2181.48c68.94-41.86 147.73-114.08 233.91-216.67 86.99-101.77 169.89-220.77 250.32-356.19s145.27-273.3 193.69-413.64c48.43-140.34 73.05-270.84 73.05-392.31 0-54.17-4.92-105.05-15.6-152.65-7.39-75.5-30.37-132.96-70.58-172.35-40.22-39.39-91.1-59.92-154.3-59.92-126.38 0-239.64 77.97-338.95 232.27-77.97 135.42-141.98 293.82-189.59 475.2-48.42 181.38-75.5 362.76-79.61 544.14 10.67 208.46 43.5 379.17 97.67 512.13zm-132.96 123.11c-94.39-340.6-146.92-686.94-157.58-1039.03 3.28-227.34 26.26-439.09 69.75-636.06 42.68-196.15 103.41-367.68 182.2-513.77 77.97-146.09 167.43-256.89 268.38-332.39 91.1-68.94 155.12-103.41 191.23-103.41 27.08 0 50.06 9.85 71.4 28.72 20.51 19.7 47.6 50.89 81.25 93.56 250.32 353.74 375.06 780.51 375.06 1280.32 0 236.37-31.18 468.63-92.74 698.44-61.55 229.8-151.83 446.47-272.48 650.83s-264.28 383.28-430.06 537.58l169.89 826.46c92.75-12.31 156.76-18.87 192.05-18.87 158.4 0 302.85 33.65 434.99 100.12 131.31 66.48 243.75 156.76 335.67 271.66 92.75 114.08 164.15 244.58 214.21 391.48 50.07 146.91 75.51 299.56 75.51 457.96 0 248.68-64.84 474.37-194.51 677.92-129.68 203.54-325.83 353.73-586.82 449.75 16.41 102.59 45.96 250.32 89.46 443.19 42.67 192.87 74.68 345.53 94.38 458.79 20.52 113.26 30.37 222.41 30.37 329.11 0 165.79-40.22 312.69-120.65 442.37s-190.41 229.81-328.29 302.03c-137.88 71.4-288.89 107.51-452.21 107.51-229.81 0-431.7-64.84-604.05-193.69-172.35-128.86-263.45-304.49-272.48-525.26 6.56-98.49 30.37-191.22 72.23-279.05 41.03-88.64 97.66-160.04 170.7-215.85 73.05-54.99 157.58-85.35 256.06-91.1 82.9 0 160.86 22.16 233.09 67.3 72.22 45.13 130.49 106.69 173.99 183.84 43.49 77.15 65.65 163.33 65.65 256.89 0 123.11-41.86 227.33-125.57 313.51s-190.4 129.68-318.43 129.68h-49.24c82.07 127.21 216.67 191.22 402.97 191.22 94.39 0 190.41-19.7 287.25-59.09 97.67-38.57 181.39-91.92 250.33-158.4s114.07-137.88 134.59-214.21c34.47-86.18 51.71-204.36 51.71-355.37 0-99.31-9.85-199.44-28.72-300.38-18.88-100.13-48.43-232.27-88.64-394.77-40.22-162.5-68.94-287.25-87-374.25-124.75 32.83-255.24 49.24-392.31 49.24-228.16 0-444-46.78-647.55-140.34-203.54-94.39-381.64-224.88-535.93-392.31-153.48-167.43-273.3-357.83-358.65-571.22-85.36-212.56-128.86-434.15-131.32-664.78 8.21-213.38 49.24-418.57 123.93-613.08 74.68-195.33 171.53-379.17 292.17-551.52 119.82-172.35 243.75-328.28 371.79-468.63 128.03-139.53 298.75-317.62 512.95-532.65z"/><path d="m436.8 6820.6v-117.36h42612.1 1409.03v117.36h-42612.11-1409.02zm0-1167.06v-113.26h42612.1 1409.03v113.26h-42612.11-1409.02zm0-1276.22v-117.36h42612.1 1409.03v117.36h-42612.11-1409.02zm0-1202.35v-117.37h42612.1 1409.03v117.37h-42612.11-1409.02zm0-1238.47v-117.37h42612.1 1409.03v117.37h-42612.11-1409.02z"/><path d="m11643.74 7313.6c9.85 183.02 63.19 334.03 161.68 452.21 98.49 119.01 216.67 178.1 355.38 178.1 106.7-12.31 180.56-47.61 220.77-106.7 40.22-59.09 60.74-160.85 60.74-306.95-14.77-187.95-70.59-339.78-168.25-456.32-97.66-115.72-217.49-173.99-359.48-173.99-98.49 16.41-168.25 51.71-209.28 107.51-41.03 55.82-61.55 157.58-61.55 306.13zm-615.54 103.41c0-149.37 54.99-270.01 165.79-362.76 110.8-91.91 242.93-157.58 397.22-195.33 153.48-38.58 296.28-57.45 426.78-57.45 142.81 0 292.17 18.87 448.94 56.63 156.75 37.76 293 102.59 407.89 193.69 115.72 91.92 176.45 214.21 183.02 365.22 0 151.02-54.99 273.3-165.79 366.86s-242.93 160.04-397.23 199.44c-154.29 39.39-300.38 59.09-437.44 59.09-147.73 0-298.75-18.87-454.68-57.45-155.12-37.75-288.9-103.41-401.33-196.97-112.45-93.56-169.89-216.67-173.18-370.96z"/><path d="m21134.66 6084.15c9.85 183.02 63.19 334.03 161.68 452.21 98.49 119.01 216.67 178.1 355.38 178.1 106.7-12.31 180.56-47.61 220.77-106.7 40.22-59.09 60.74-160.85 60.74-306.95-14.77-187.95-70.59-339.78-168.25-456.32-97.66-115.72-217.49-173.99-359.48-173.99-98.49 16.41-168.25 51.71-209.28 107.51-41.03 55.82-61.55 157.58-61.55 306.13zm-615.54 103.41c0-149.37 54.99-270.01 165.79-362.76 110.8-91.91 242.93-157.58 397.22-195.33 153.48-38.58 296.28-57.45 426.78-57.45 142.81 0 292.17 18.87 448.94 56.63 156.75 37.76 293 102.59 407.89 193.69 115.72 91.92 176.45 214.21 183.02 365.22 0 151.02-54.99 273.3-165.79 366.86s-242.93 160.04-397.23 199.44c-154.29 39.39-300.38 59.09-437.44 59.09-147.73 0-298.75-18.87-454.68-57.45-155.12-37.75-288.9-103.41-401.33-196.97-112.45-93.56-169.89-216.67-173.18-370.96z"/><path d="m15896.77 6698.87c9.85 183.02 63.19 334.03 161.68 452.21 98.49 119.01 216.67 178.1 355.38 178.1 106.7-12.31 180.56-47.61 220.77-106.7 40.22-59.09 60.74-160.85 60.74-306.95-14.77-187.95-70.59-339.78-168.25-456.32-97.66-115.72-217.49-173.99-359.48-173.99-98.49 16.41-168.25 51.71-209.28 107.51-41.03 55.82-61.55 157.58-61.55 306.13zm-615.54 103.41c0-149.37 54.99-270.01 165.79-362.76 110.8-91.91 242.93-157.58 397.22-195.33 153.48-38.58 296.28-57.45 426.78-57.45 142.81 0 292.17 18.87 448.94 56.63 156.75 37.76 293 102.59 407.89 193.69 115.72 91.92 176.45 214.21 183.02 365.22 0 151.02-54.99 273.3-165.79 366.86s-242.93 160.04-397.23 199.44c-154.29 39.39-300.38 59.09-437.44 59.09-147.73 0-298.75-18.87-454.68-57.45-155.12-37.75-288.9-103.41-401.33-196.97-112.45-93.56-169.89-216.67-173.18-370.96z"/><path d="m26372.55 5469.41c9.85 183.02 63.19 334.03 161.68 452.21 98.49 119.01 216.67 178.1 355.38 178.1 106.7-12.31 180.56-47.61 220.77-106.7 40.22-59.09 60.74-160.85 60.74-306.95-14.77-187.95-70.59-339.78-168.25-456.32-97.66-115.72-217.49-173.99-359.48-173.99-98.49 16.41-168.25 51.71-209.28 107.51-41.03 55.82-61.55 157.58-61.55 306.13zm-615.54 103.41c0-149.37 54.99-270.01 165.79-362.76 110.8-91.91 242.93-157.58 397.22-195.33 153.48-38.58 296.28-57.45 426.78-57.45 142.81 0 292.17 18.87 448.94 56.63 156.75 37.76 293 102.59 407.89 193.69 115.72 91.92 176.45 214.21 183.02 365.22 0 151.02-54.99 273.3-165.79 366.86s-242.93 160.04-397.23 199.44c-154.29 39.39-300.38 59.09-437.44 59.09-147.73 0-298.75-18.87-454.68-57.45-155.12-37.75-288.9-103.41-401.33-196.97-112.45-93.56-169.89-216.67-173.18-370.96z"/><path d="m31610.44 4854.69c9.85 183.02 63.19 334.03 161.68 452.21 98.49 119.01 216.67 178.1 355.38 178.1 106.7-12.31 180.56-47.61 220.77-106.7 40.22-59.09 60.74-160.85 60.74-306.95-14.77-187.95-70.59-339.78-168.25-456.32-97.66-115.72-217.49-173.99-359.48-173.99-98.49 16.41-168.25 51.71-209.28 107.51-41.03 55.82-61.55 157.58-61.55 306.13zm-615.54 103.41c0-149.37 54.99-270.01 165.79-362.76 110.8-91.91 242.93-157.58 397.22-195.33 153.48-38.58 296.28-57.45 426.78-57.45 142.81 0 292.17 18.87 448.94 56.63 156.75 37.76 293 102.59 407.89 193.69 115.72 91.92 176.45 214.21 183.02 365.22 0 151.02-54.99 273.3-165.79 366.86s-242.93 160.04-397.23 199.44c-154.29 39.39-300.38 59.09-437.44 59.09-147.73 0-298.75-18.87-454.68-57.45-155.12-37.75-288.9-103.41-401.33-196.97-112.45-93.56-169.89-216.67-173.18-370.96z"/><path d="m36848.33 4239.96c9.85 183.02 63.19 334.03 161.68 452.21 98.49 119.01 216.67 178.1 355.38 178.1 106.7-12.31 180.56-47.61 220.77-106.7 40.22-59.09 60.74-160.85 60.74-306.95-14.77-187.95-70.59-339.78-168.25-456.32-97.66-115.72-217.49-173.99-359.48-173.99-98.49 16.41-168.25 51.71-209.28 107.51-41.03 55.82-61.55 157.58-61.55 306.13zm-615.54 103.41c0-149.37 54.99-270.01 165.79-362.76 110.8-91.91 242.93-157.58 397.22-195.33 153.48-38.58 296.28-57.45 426.78-57.45 142.81 0 292.17 18.87 448.94 56.63 156.75 37.76 293 102.59 407.89 193.69 115.72 91.92 176.45 214.21 183.02 365.22 0 151.02-54.99 273.3-165.79 366.86s-242.93 160.04-397.23 199.44c-154.29 39.39-300.38 59.09-437.44 59.09-147.73 0-298.75-18.87-454.68-57.45-155.12-37.75-288.9-103.41-401.33-196.97-112.45-93.56-169.89-216.67-173.18-370.96z"/><path d="m42086.22 3625.22c9.85 183.02 63.19 334.03 161.68 452.21 98.49 119.01 216.67 178.1 355.38 178.1 106.7-12.31 180.56-47.61 220.77-106.7 40.22-59.09 60.74-160.85 60.74-306.95-14.77-187.95-70.59-339.78-168.25-456.32-97.66-115.72-217.49-173.99-359.48-173.99-98.49 16.41-168.25 51.71-209.28 107.51-41.03 55.82-61.55 157.58-61.55 306.13zm-615.54 103.41c0-149.37 54.99-270.01 165.79-362.76 110.8-91.91 242.93-157.58 397.22-195.33 153.48-38.58 296.28-57.45 426.78-57.45 142.81 0 292.17 18.87 448.94 56.63 156.75 37.76 293 102.59 407.89 193.69 115.72 91.92 176.45 214.21 183.02 365.22 0 151.02-54.99 273.3-165.79 366.86s-242.93 160.04-397.23 199.44c-154.29 39.39-300.38 59.09-437.44 59.09-147.73 0-298.75-18.87-454.68-57.45-155.12-37.75-288.9-103.41-401.33-196.97-112.45-93.56-169.89-216.67-173.18-370.96z"/><path d="m5420.99 7928.33c9.85 183.02 63.19 334.03 161.68 452.21 98.49 119.01 216.67 178.1 355.38 178.1 106.7-12.31 180.56-47.61 220.77-106.7 40.22-59.09 60.74-160.85 60.74-306.95-14.77-187.95-70.59-339.78-168.25-456.32-97.66-115.72-217.49-173.99-359.48-173.99-98.49 16.41-168.25 51.71-209.28 107.51-41.03 55.82-61.55 157.58-61.55 306.13zm-615.54 103.41c0-149.37 54.99-270.01 165.79-362.76 110.8-91.91 242.93-157.58 397.22-195.33 153.48-38.58 296.28-57.45 426.78-57.45 142.81 0 292.17 18.87 448.94 56.63 156.75 37.76 293 102.59 407.89 193.69 115.72 91.92 176.45 214.21 183.02 365.22 0 151.02-54.99 273.3-165.79 366.86s-242.93 160.04-397.23 199.44c-154.29 39.39-300.38 59.09-437.44 59.09-147.73 0-298.75-18.87-454.68-57.45-155.12-37.75-288.9-103.41-401.33-196.97-112.45-93.56-169.89-216.67-173.18-370.96z"/><path d="m4626.88 7954.42h2462.16v147.73h-2462.16z"/><path d="m9677.01 7928.33c9.85 183.02 63.19 334.03 161.68 452.21 98.49 119.01 216.67 178.1 355.38 178.1 106.7-12.31 180.56-47.61 220.77-106.7 40.22-59.09 60.74-160.85 60.74-306.95-14.77-187.95-70.59-339.78-168.25-456.32-97.66-115.72-217.49-173.99-359.48-173.99-98.49 16.41-168.25 51.71-209.28 107.51-41.03 55.82-61.55 157.58-61.55 306.13zm-615.54 103.41c0-149.37 54.99-270.01 165.79-362.76 110.8-91.91 242.93-157.58 397.22-195.33 153.48-38.58 296.28-57.45 426.78-57.45 142.81 0 292.17 18.87 448.94 56.63 156.75 37.76 293 102.59 407.89 193.69 115.72 91.92 176.45 214.21 183.02 365.22 0 151.02-54.99 273.3-165.79 366.86s-242.93 160.04-397.23 199.44c-154.29 39.39-300.38 59.09-437.44 59.09-147.73 0-298.75-18.87-454.68-57.45-155.12-37.75-288.9-103.41-401.33-196.97-112.45-93.56-169.89-216.67-173.18-370.96z"/><path d="m8882.9 7954.42h2462.16v147.73h-2462.16z"/><path d="m15902.77 7928.33c9.85 183.02 63.19 334.03 161.68 452.21 98.49 119.01 216.67 178.1 355.38 178.1 106.7-12.31 180.56-47.61 220.77-106.7 40.22-59.09 60.74-160.85 60.74-306.95-14.77-187.95-70.59-339.78-168.25-456.32-97.66-115.72-217.49-173.99-359.48-173.99-98.49 16.41-168.25 51.71-209.28 107.51-41.03 55.82-61.55 157.58-61.55 306.13zm-615.54 103.41c0-149.37 54.99-270.01 165.79-362.76 110.8-91.91 242.93-157.58 397.22-195.33 153.48-38.58 296.28-57.45 426.78-57.45 142.81 0 292.17 18.87 448.94 56.63 156.75 37.76 293 102.59 407.89 193.69 115.72 91.92 176.45 214.21 183.02 365.22 0 151.02-54.99 273.3-165.79 366.86s-242.93 160.04-397.23 199.44c-154.29 39.39-300.38 59.09-437.44 59.09-147.73 0-298.75-18.87-454.68-57.45-155.12-37.75-288.9-103.41-401.33-196.97-112.45-93.56-169.89-216.67-173.18-370.96z"/><path d="m15108.65 7954.42h2462.16v147.73h-2462.16z"/><path d="m21143.65 7928.33c9.85 183.02 63.19 334.03 161.68 452.21 98.49 119.01 216.67 178.1 355.38 178.1 106.7-12.31 180.56-47.61 220.77-106.7 40.22-59.09 60.74-160.85 60.74-306.95-14.77-187.95-70.59-339.78-168.25-456.32-97.66-115.72-217.49-173.99-359.48-173.99-98.49 16.41-168.25 51.71-209.28 107.51-41.03 55.82-61.55 157.58-61.55 306.13zm-615.54 103.41c0-149.37 54.99-270.01 165.79-362.76 110.8-91.91 242.93-157.58 397.22-195.33 153.48-38.58 296.28-57.45 426.78-57.45 142.81 0 292.17 18.87 448.94 56.63 156.75 37.76 293 102.59 407.89 193.69 115.72 91.92 176.45 214.21 183.02 365.22 0 151.02-54.99 273.3-165.79 366.86s-242.93 160.04-397.23 199.44c-154.29 39.39-300.38 59.09-437.44 59.09-147.73 0-298.75-18.87-454.68-57.45-155.12-37.75-288.9-103.41-401.33-196.97-112.45-93.56-169.89-216.67-173.18-370.96z"/><path d="m20349.54 7954.42h2462.16v147.73h-2462.16z"/><path d="m26384.54 7928.33c9.85 183.02 63.19 334.03 161.68 452.21 98.49 119.01 216.67 178.1 355.38 178.1 106.7-12.31 180.56-47.61 220.77-106.7 40.22-59.09 60.74-160.85 60.74-306.95-14.77-187.95-70.59-339.78-168.25-456.32-97.66-115.72-217.49-173.99-359.48-173.99-98.49 16.41-168.25 51.71-209.28 107.51-41.03 55.82-61.55 157.58-61.55 306.13zm-615.54 103.41c0-149.37 54.99-270.01 165.79-362.76 110.8-91.91 242.93-157.58 397.22-195.33 153.48-38.58 296.28-57.45 426.78-57.45 142.81 0 292.17 18.87 448.94 56.63 156.75 37.76 293 102.59 407.89 193.69 115.72 91.92 176.45 214.21 183.02 365.22 0 151.02-54.99 273.3-165.79 366.86s-242.93 160.04-397.23 199.44c-154.29 39.39-300.38 59.09-437.44 59.09-147.73 0-298.75-18.87-454.68-57.45-155.12-37.75-288.9-103.41-401.33-196.97-112.45-93.56-169.89-216.67-173.18-370.96z"/><path d="m25590.42 7954.42h2462.17v147.73h-2462.17z"/><path d="m31625.43 7928.33c9.85 183.02 63.19 334.03 161.68 452.21 98.49 119.01 216.67 178.1 355.38 178.1 106.7-12.31 180.56-47.61 220.77-106.7 40.22-59.09 60.74-160.85 60.74-306.95-14.77-187.95-70.59-339.78-168.25-456.32-97.66-115.72-217.49-173.99-359.48-173.99-98.49 16.41-168.25 51.71-209.28 107.51-41.03 55.82-61.55 157.58-61.55 306.13zm-615.54 103.41c0-149.37 54.99-270.01 165.79-362.76 110.8-91.91 242.93-157.58 397.22-195.33 153.48-38.58 296.28-57.45 426.78-57.45 142.81 0 292.17 18.87 448.94 56.63 156.75 37.76 293 102.59 407.89 193.69 115.72 91.92 176.45 214.21 183.02 365.22 0 151.02-54.99 273.3-165.79 366.86s-242.93 160.04-397.23 199.44c-154.29 39.39-300.38 59.09-437.44 59.09-147.73 0-298.75-18.87-454.68-57.45-155.12-37.75-288.9-103.41-401.33-196.97-112.45-93.56-169.89-216.67-173.18-370.96z"/><path d="m30831.31 7954.42h2462.16v147.73h-2462.16z"/><path d="m36866.31 7928.33c9.85 183.02 63.19 334.03 161.68 452.21 98.49 119.01 216.67 178.1 355.38 178.1 106.7-12.31 180.56-47.61 220.77-106.7 40.22-59.09 60.74-160.85 60.74-306.95-14.77-187.95-70.59-339.78-168.25-456.32-97.66-115.72-217.49-173.99-359.48-173.99-98.49 16.41-168.25 51.71-209.28 107.51-41.03 55.82-61.55 157.58-61.55 306.13zm-615.54 103.41c0-149.37 54.99-270.01 165.79-362.76 110.8-91.91 242.93-157.58 397.22-195.33 153.48-38.58 296.28-57.45 426.78-57.45 142.81 0 292.17 18.87 448.94 56.63 156.75 37.76 293 102.59 407.89 193.69 115.72 91.92 176.45 214.21 183.02 365.22 0 151.02-54.99 273.3-165.79 366.86s-242.93 160.04-397.23 199.44c-154.29 39.39-300.38 59.09-437.44 59.09-147.73 0-298.75-18.87-454.68-57.45-155.12-37.75-288.9-103.41-401.33-196.97-112.45-93.56-169.89-216.67-173.18-370.96z"/><path d="m36072.2 7954.42h2462.16v147.73h-2462.16z"/><path d="m42107.21 7928.33c9.85 183.02 63.19 334.03 161.68 452.21 98.49 119.01 216.67 178.1 355.38 178.1 106.7-12.31 180.56-47.61 220.77-106.7 40.22-59.09 60.74-160.85 60.74-306.95-14.77-187.95-70.59-339.78-168.25-456.32-97.66-115.72-217.49-173.99-359.48-173.99-98.49 16.41-168.25 51.71-209.28 107.51-41.03 55.82-61.55 157.58-61.55 306.13zm-615.54 103.41c0-149.37 54.99-270.01 165.79-362.76 110.8-91.91 242.93-157.58 397.22-195.33 153.48-38.58 296.28-57.45 426.78-57.45 142.81 0 292.17 18.87 448.94 56.63 156.75 37.76 293 102.59 407.89 193.69 115.72 91.92 176.45 214.21 183.02 365.22 0 151.02-54.99 273.3-165.79 366.86s-242.93 160.04-397.23 199.44c-154.29 39.39-300.38 59.09-437.44 59.09-147.73 0-298.75-18.87-454.68-57.45-155.12-37.75-288.9-103.41-401.33-196.97-112.45-93.56-169.89-216.67-173.18-370.96z"/><path d="m41313.09 7954.42h2462.17000000001v147.73h-2462.17000000001z"/></g><text fill="#00b0f0" font-family="Arial" font-size="1231.08" font-weight="bold" x="5050.89" y="10519.71">P1</text><text fill="#00b0f0" font-family="Arial" font-size="1231.08" font-weight="bold" x="3307.98" y="11895.03">(Unison)</text><text fill="#ee3338" font-family="Arial" font-size="1231.08" font-weight="bold" x="10193.83" y="10519.71">M2</text><text fill="#ee3338" font-family="Arial" font-size="1231.08" font-weight="bold" x="15435.27" y="10519.71">M3</text><text fill="#00b0f0" font-family="Arial" font-size="1231.08" font-weight="bold" x="20771.09" y="10519.71">P4</text><text fill="#00b0f0" font-family="Arial" font-size="1231.08" font-weight="bold" x="26021.54" y="10516.02">P5</text><text fill="#ee3338" font-family="Arial" font-size="1231.08" font-weight="bold" x="31168.61" y="10519.71">M6</text><text fill="#ee3338" font-family="Arial" font-size="1231.08" font-weight="bold" x="36419.99" y="10516.02">M7</text><text fill="#00b0f0" font-family="Arial" font-size="1231.08" font-weight="bold" x="41772.54" y="10519.71">P8</text><text fill="#00b0f0" font-family="Arial" font-size="1231.08" font-weight="bold" x="40062.36" y="11895.03">(Octave)</text></svg>